<?xml version="1.0" standalone="no"?>
<!DOCTYPE svg PUBLIC "-//W3C//DTD SVG 20010904//EN"
 "http://www.w3.org/TR/2001/REC-SVG-20010904/DTD/svg10.dtd">
<svg version="1.0" xmlns="http://www.w3.org/2000/svg"
 width="482.000000pt" height="482.000000pt" viewBox="0 0 482.000000 482.000000"
 preserveAspectRatio="xMidYMid meet">

<g transform="translate(0.000000,482.000000) scale(0.100000,-0.100000)"
fill="#000000" stroke="none">
<path d="M650 3859 c-102 -3 -216 -7 -253 -8 -64 -1 -67 -2 -57 -21 8 -14 -3
-79 -44 -272 -67 -307 -284 -1304 -291 -1335 l-5 -23 240 0 c132 0 240 2 240
5 0 10 201 1030 206 1048 4 12 208 -401 565 -1139 307 -636 561 -1159 563
-1162 3 -2 122 -1 266 3 l260 7 -19 32 c-10 17 -328 659 -706 1426 -379 767
-694 1402 -702 1411 -7 8 -13 21 -13 27 0 7 -13 11 -32 10 -18 -1 -116 -5
-218 -9z"/>
<path d="M3130 3859 c-102 -3 -216 -7 -253 -8 -65 -1 -67 -2 -57 -21 9 -17
-23 -179 -160 -808 -94 -433 -173 -795 -176 -804 -5 -17 11 -18 234 -18 l240
0 5 23 c3 12 49 245 102 517 52 272 99 503 103 512 5 12 33 -37 96 -170 180
-375 1027 -2126 1031 -2130 2 -3 121 -1 265 3 l261 7 -14 22 c-12 18 -240 480
-1244 2514 l-184 372 -32 -2 c-18 -1 -115 -5 -217 -9z"/>
</g>
</svg>
